inDegrees=yes
name=ik_S49_A05_T01
DataType=double
version=3
OpenSimVersion=4.3-2021-08-27-4bc7ad9
endheader
time	pelvis_tilt	pelvis_list	pelvis_rotation	pelvis_tx	pelvis_ty	pelvis_tz	hip_flexion_r	hip_adduction_r	hip_rotation_r	knee_angle_r	knee_angle_r_beta	ankle_angle_r	subtalar_angle_r	mtp_angle_r	hip_flexion_l	hip_adduction_l	hip_rotation_l	knee_angle_l	knee_angle_l_beta	ankle_angle_l	subtalar_angle_l	mtp_angle_l	lumbar_extension	lumbar_bending	lumbar_rotation	arm_flex_r	arm_add_r	arm_rot_r	elbow_flex_r	pro_sup_r	wrist_flex_r	wrist_dev_r	arm_flex_l	arm_add_l	arm_rot_l	elbow_flex_l	pro_sup_l	wrist_flex_l	wrist_dev_l
8.39999999999991	-4.512888250438762	-4.337573489031657	28.22111240998232	0	0.9399999999999999	0	43.06140113816824	-11.83311622545228	-11.35338437891286	52.13885994750276	0.909994774320121	0	0	0	43.06140113816824	-11.83311622545228	-11.35338437891286	52.13885994750276	0.909994774320121	0	0	0	-3.634007692294758	-0.04711761033746475	3.958892960716261	27.97765603324352	-11.00979203633202	-1.988396855325164	53.34858880663587	120.0831197830599	0	0	46.71282619679288	-4.274116342839614	19.4298660708983	16.44719579066623	122.5436431920012	0	0
8.419999999999909	-4.528844375658119	-4.345352979077517	28.33757034906465	0	0.9399999999999999	0	43.06216682003166	-11.83061041757489	-11.35219495080968	52.13962490303535	0.9100081253127961	0	0	0	43.06216682003166	-11.83061041757489	-11.35219495080968	52.13962490303535	0.9100081253127961	0	0	0	-3.659220060106103	-0.03691034500071686	3.855823569829667	28.13873597480879	-11.19761784365519	-1.656586435361389	54.68733844718344	119.5025671329225	0	0	46.70895120527332	-4.251130234518778	19.43659716870441	16.46976468844052	122.5145861698486	0	0
8.439999999999909	-4.568458498269208	-4.366691124405808	28.40331875041092	0	0.9399999999999999	0	43.06283667142467	-11.82842739402874	-11.35115715792469	52.14029640181376	0.9100198451774023	0	0	0	43.06283667142467	-11.82842739402874	-11.35115715792469	52.14029640181376	0.9100198451774023	0	0	0	-3.707440864548894	-0.0330121313211833	3.814464785247441	28.41843722349651	-11.38165498711802	-1.511907769053103	55.41161518936736	118.9492435980447	0	0	46.79371277427875	-4.221706158185507	19.41637921944286	16.52823165257206	122.5011752202886	0	0
8.459999999999908	-4.569258969728509	-4.365928062555737	28.34810387102213	0	0.9399999999999999	0	43.06373069973584	-11.82549122842219	-11.3497647529062	52.14118551924052	0.9100353632039362	0	0	0	43.06373069973584	-11.82549122842219	-11.3497647529062	52.14118551924052	0.9100353632039362	0	0	0	-3.704063295591546	-0.03910623022945512	3.879310845044598	28.79275494079315	-11.61849715416986	-1.666259952157234	57.02080526975689	118.0751213389888	0	0	46.74332638980898	-4.220573351517489	19.44512322950166	16.55054089111968	122.4186166429595	0	0
8.479999999999908	-4.583067339580527	-4.369082490718001	28.20954040072332	0	0.9399999999999999	0	43.06501363301592	-11.82127294706005	-11.34776461338507	52.14245845081675	0.9100575800510939	0	0	0	43.06501363301592	-11.82127294706005	-11.34776461338507	52.14245845081675	0.9100575800510939	0	0	0	-3.709892644552542	-0.05025560511015918	4.022743595010692	29.43366334453971	-12.00029027974375	-2.093744868134162	61.15768177254241	116.5370265697091	0	0	46.73288553555084	-4.199726994966761	19.48490013985965	16.58913820958555	122.3748614915109	0	0
8.499999999999908	-4.585756504204994	-4.367283291056948	28.10051423774749	0	0.9399999999999999	0	43.06600743001613	-11.81800509235561	-11.34621478512936	52.14344324043046	0.9100747678722927	0	0	0	43.06600743001613	-11.81800509235561	-11.34621478512936	52.14344324043046	0.9100747678722927	0	0	0	-3.704958573041863	-0.05901502161791291	4.127815271888125	30.21307970179334	-12.28033442477346	-2.566212493216367	62.99325958224953	115.6523497691685	0	0	46.69900658795612	-4.194291340593187	19.5045322437571	16.59146363014406	122.3498284670867	0	0
8.519999999999907	-4.58553926174413	-4.366792580748024	28.10533384226567	0	0.9399999999999999	0	43.06718056997809	-11.81419634326716	-11.34440027502484	52.14461863532087	0.9100952823831415	0	0	0	43.06718056997809	-11.81419634326716	-11.34440027502484	52.14461863532087	0.9100952823831415	0	0	0	-3.706465146618047	-0.05743641723615204	4.110950541378208	30.24213372003347	-12.40215531339304	-2.621326766966535	65.57122829272888	114.5938981136251	0	0	46.68535442729449	-4.210878068831326	19.47542678179554	16.59247399381156	122.4160632836592	0	0
